<?xml version="1.0" encoding="utf-8"?>
<!-- Generator: Adobe Illustrator 17.1.0, SVG Export Plug-In . SVG Version: 6.00 Build 0)  -->
<!DOCTYPE svg PUBLIC "-//W3C//DTD SVG 1.1//EN" "http://www.w3.org/Graphics/SVG/1.1/DTD/svg11.dtd">
<svg version="1.1" id="Layer_2" xmlns="http://www.w3.org/2000/svg" xmlns:xlink="http://www.w3.org/1999/xlink" x="0px" y="0px"
	 viewBox="0 0 1440 1152" enable-background="new 0 0 1440 1152" xml:space="preserve">
<g>
	<g>
		<path fill="#EF4136" stroke="#EF4136" stroke-miterlimit="10" d="M485.684,383.9c-88.686-22.648-83.163,0-130.501,0
			s-128.976-49.35-88.28-30.703c30.706,14.07,81.943-8.618,81.943-8.618C389.771,329.454,470.317,351.611,485.684,383.9z"/>
		<path fill="#EF4136" stroke="#EF4136" stroke-miterlimit="10" d="M735.299,435.899c-34.578-47.961-43.581-26.902-68.388-42.216
			c-24.807-15.314-41.666-83.716-30.135-54.684c8.701,21.906,47.468,19.175,47.468,19.175
			C713.637,358.543,744.208,403.453,735.299,435.899z"/>
		<path fill="#EF4136" stroke="#EF4136" stroke-miterlimit="10" d="M184.931,453.056c43.53,16.72,19.092,35.102,35.76,50.939
			s56.508,17.167,57.954,4.699C281.608,483.151,207.882,439.735,184.931,453.056z"/>
		<path fill="#EF4136" stroke="#EF4136" stroke-miterlimit="10" d="M349.935,631.106c23.537,1.362,14.592,13.972,25.055,19.038
			c10.463,5.066,29.857-0.418,28.637-6.646C401.126,630.74,358.941,621.162,349.935,631.106z"/>
		<path fill="#EF4136" stroke="#EF4136" stroke-miterlimit="10" d="M263.563,528.47c27.737-1.123,58.029,26.054,58.029,26.054
			s0.632-14.807-5.921-29.607c-6.252-14.119-47.371-60.398-72.241-84.083s-35.528-87.636-35.528-87.636s10.556,24.342,43.818,41.45
			c27.804,14.3,143.316,7.006,174.088,5.921c48.972-1.726,141.569,38.131,141.569,38.131l-33.185-41.684
			c0,0-26.135-39.069,7.675-10.658c28.761,24.168,92.421,12.661,120.844,24.504c28.423,11.843,88.772,67.869,88.772,67.869
			s-4.305-9.679-4.576-23.538c-0.452-23.174,38.92-51.071,38.92-51.071s-5.921,14.211,0,42.634s35.528,61.582,49.739,69.872
			c14.211,8.29,14.211,26.054,18.554,37.897c4.342,11.843,11.053,17.764,18.159,17.764c7.106,0-13.027-39.081-16.58-53.292
			c-3.553-14.211,0-53.292,0-53.292s16.964,38.966,43.818,62.766c25.885,22.941,33.124,49.841,22.831,78.969
			c-13.951,39.48-44.989,20.648-44.989,20.648s-0.044,0.018-0.108,0.045c-36.535-50.699-96.081-83.711-163.345-83.711
			c-111.127,0-201.213,90.086-201.213,201.213c0,10.749,0.852,21.298,2.475,31.591c-6.117,2.519-10.019,4.125-11.192,4.609
			c-68.809,16.17-127.115-25.029-135.014-35.456c-11.817-15.6-15.088-30.469-15.088-50.602c0-20.133-24.093-40.61-46.77-41.984
			c37.108-24.052,65.649,21.23,89.335,16.493c23.685-4.737,45.818-19.215,35.51-37.769
			c-10.308-18.554-106.001-23.062-122.654-24.839c-37.925-4.049-84.815-91.047-84.815-91.047S245.809,529.188,263.563,528.47z"/>
	</g>
	<path fill-rule="evenodd" clip-rule="evenodd" fill="#231F20" d="M534.03,766.962c0.288,2.844,0.53,5.461,0.975,8.332
		c5.318,34.398,18.708,61.555,39.565,87.372c46.433,57.482,124.874,82.365,198.877,59.837c10.727-3.264,18.826-7.962,28.574-11.267
		c1.054-1.703,5.675-3.391,8.464-4.962c3.204-1.804,5.641-3.446,8.355-5.2c32.409-20.947,60.962-56.106,74.149-93.531
		c1.217-3.451,5.409-19.542,5.977-20.438c2.017-24.932,6.908-43.819,1.472-74c-10.455-58.063-48.309-109.351-100.974-134.444
		c-79.678-37.964-170.909-16.838-226.428,51.405C544.401,665.268,528.472,711.811,534.03,766.962z M785.76,870.099
		c48.176-34.231,80.869-67.616,80.869-121.324c0-46.096-14.835-98.394-47.059-126.471l-7.989-11.609
		c45.35,30.449,80.237,82.42,75.196,140.932c-5.671,65.832-29.812,116.194-82.765,141.75
		C797.926,896.316,764.267,885.371,785.76,870.099z M779.517,630.101c29.755,6.421,20.174,53.238-11.006,45.429
		C740.404,668.488,748.447,623.396,779.517,630.101z M686.183,694.712c1.91-11.169,12.884-20.099,26.302-18.035
		c31.751,4.885,22.705,51.548-8.287,45.767C693.247,720.401,683.74,708.986,686.183,694.712z M665.933,620.28
		c3.502-10.23,16.127-19.712,29.923-14.013c30.984,12.795,10.804,54.777-16.764,43.273
		C669.854,645.686,661.17,634.194,665.933,620.28z"/>
</g>
<path fill-rule="evenodd" clip-rule="evenodd" fill="#231F20" d="M1031.294,221.344l0.01,0.45
	c-44.159,6.692-61.147,35.33-63.117,70.41c16.611,40.807,34.591,78.719,28.252,118.586c-0.793,95.15-47.371,154.509-56.879,227.653
	c-27.028,157.988-9.121,206.091,36.499,276.531l70.15,2.3l0.003,0.216l1.982-0.152l1.988,0.068l-0.005-0.218l69.981-5.301
	c42.563-72.331,58.396-121.154,24.622-277.841c-12.632-72.67-61.707-129.979-66.577-225.011
	c-8.041-39.556,8.296-78.202,23.143-119.682c-3.468-34.967-21.669-62.85-66.074-67.643l-0.008-0.452
	c-0.666,0.079-1.326,0.165-1.979,0.254C1032.626,221.451,1031.963,221.393,1031.294,221.344"/>
</svg>
